<?xml version="1.0" encoding="UTF-8"?>
<svg width="64" height="64" viewBox="0 0 24 24" fill="none" xmlns="http://www.w3.org/2000/svg">
  <path d="M12 2C6.48 2 2 6.48 2 12s4.48 10 10 10 10-4.48 10-10S17.52 2 12 2zm0 18c-4.42 0-8-3.58-8-8s3.58-8 8-8 8 3.58 8 8-3.58 8-8 8zm3.5-9c-.28 0-.53-.11-.7-.29l-2.22-2.22c-.69.3-1.4.46-2.12.46-2.34 0-4.25-1.91-4.25-4.25 0-2.34 1.91-4.25 4.25-4.25 2.34 0 4.25 1.91 4.25 4.25 0 .72-.16 1.43-.46 2.12l2.22 2.22c.18.17.29.42.29.7 0 1.42-1.16 2.58-2.58 2.58z" fill="#10B981"/>
</svg>
